# xmcd
# 
# Track frame offsets:
#     187
#     16850
#     33805
#     45000
#     61862
#     71287
#     81795
#     95230
#     104352
#     113572
#     130947
#     140695
# 
# Disc length: 2160
# 
# Revision: 3
# Processed by: cddbd v1.5.2PL0 Copyright (c) Steve Scherf et al.
# Submitted via: fre:ac v1.0.31
# 
DISCID=90086e0c
DTITLE=Christmas - Old Fashioned Christmas Disc 3
DYEAR=0
DGENRE=Christmas
TTITLE0=Tennessee Christmas
TTITLE1=Medley: Joy To The World/O Little Town Of Bethlehem
TTITLE2=Pretty Paper
TTITLE3=Winter Wonderland
TTITLE4=Christmas In My Hometown
TTITLE5=Slient Night, Holy Night
TTITLE6=It's Christmas
TTITLE7=Oh Come, All Ye Faithful
TTITLE8=Jingling Brass
TTITLE9=Hard Candy Christmas
TTITLE10=It Came Upon The Midnight Clear
TTITLE11=Merry Christmas, Mary
EXTD=
EXTT0=
EXTT1=
EXTT2=
EXTT3=
EXTT4=
EXTT5=
EXTT6=
EXTT7=
EXTT8=
EXTT9=
EXTT10=
EXTT11=
PLAYORDER=
